<?xml version="1.0" standalone="no"?>
<!DOCTYPE svg PUBLIC "-//W3C//DTD SVG 20010904//EN"
 "http://www.w3.org/TR/2001/REC-SVG-20010904/DTD/svg10.dtd">
<svg version="1.0" xmlns="http://www.w3.org/2000/svg"
 width="500.000000pt" height="500.000000pt" viewBox="0 0 500.000000 500.000000"
 preserveAspectRatio="xMidYMid meet">

<g transform="translate(0.000000,500.000000) scale(0.100000,-0.100000)"
fill="#000000" stroke="none">
<path d="M1218 4406 c-178 -39 -330 -194 -357 -363 -4 -28 -6 -726 -4 -1550 5
-1645 2 -1565 66 -1672 45 -74 129 -148 217 -190 l75 -36 530 -6 c292 -4 854
-7 1250 -8 795 -1 802 0 917 61 125 67 216 190 238 323 6 37 10 623 10 1550 0
1631 3 1546 -58 1659 -65 122 -207 216 -355 236 -120 16 -2455 12 -2529 -4z
m2568 -385 c21 -13 33 -30 38 -51 3 -18 6 -149 6 -292 0 -201 -3 -266 -14
-293 -29 -69 60 -65 -1315 -65 l-1241 0 -31 28 -31 28 0 299 1 300 35 33 36
32 1242 0 c1202 0 1244 -1 1274 -19z m-888 -1117 c23 -16 30 -62 12 -80 -8 -8
-6 -15 5 -24 18 -15 20 -83 2 -98 -23 -19 -67 -25 -97 -12 -39 16 -49 53 -26
94 12 20 14 32 6 40 -31 31 5 96 55 96 11 0 31 -7 43 -16z m-694 -10 c30 -29
19 -66 -35 -127 l-51 -57 56 0 c43 0 56 -3 56 -15 0 -12 -15 -15 -75 -15 -57
0 -75 3 -75 14 0 7 25 41 55 75 55 62 65 87 43 109 -18 18 -36 14 -60 -13 -26
-30 -38 -32 -38 -6 0 31 28 51 70 51 22 0 45 -7 54 -16z m-686 -14 c22 -21 30
-50 14 -50 -5 0 -19 11 -32 25 -62 66 -149 -19 -106 -103 19 -37 59 -49 92
-27 13 8 24 20 24 25 0 6 9 10 20 10 18 0 19 -3 9 -22 -19 -35 -40 -47 -82
-48 -51 0 -76 15 -94 57 -20 48 -9 107 24 133 35 27 102 27 131 0z m2259 -518
c13 -7 27 -21 33 -32 7 -13 10 -223 10 -636 0 -671 0 -667 -56 -693 -16 -7
-92 -11 -204 -11 -202 0 -254 12 -268 60 -4 14 -7 302 -7 641 0 603 0 617 20
639 41 46 67 51 265 47 123 -2 192 -7 207 -15z m-2289 -225 c2 -59 6 -77 17
-77 8 0 15 -7 15 -15 0 -8 -7 -15 -15 -15 -8 0 -15 -9 -15 -20 0 -11 -7 -20
-15 -20 -8 0 -15 9 -15 20 0 17 -7 20 -50 20 -69 0 -72 15 -19 96 78 120 93
122 97 11z m730 66 c2 -9 -11 -13 -47 -13 -37 0 -51 -4 -51 -14 0 -8 -2 -21
-5 -28 -4 -11 3 -13 29 -10 73 9 114 -81 61 -133 -39 -40 -125 -29 -125 15 0
24 13 26 30 5 18 -22 67 -19 80 4 15 28 12 46 -9 72 -19 24 -19 24 -54 5 -20
-10 -40 -16 -45 -12 -9 5 -9 13 3 89 l6 38 61 -3 c38 -2 63 -8 66 -15z m676 7
c14 -5 26 -16 26 -25 0 -17 -25 -21 -35 -5 -11 17 -54 11 -65 -9 -18 -34 -12
-49 15 -43 44 8 75 -6 92 -43 20 -42 7 -80 -33 -95 -40 -16 -63 -12 -89 14
-49 49 -42 165 13 198 32 20 42 21 76 8z m-710 -691 c23 -11 36 -35 36 -71 0
-9 -22 -41 -50 -71 -27 -30 -47 -57 -43 -61 3 -3 28 -6 55 -6 26 0 48 -4 48
-10 0 -6 -32 -10 -75 -10 -91 0 -95 9 -29 77 54 56 68 86 54 114 -14 26 -36
24 -64 -6 -26 -28 -51 -34 -42 -9 3 9 6 20 6 25 0 9 54 38 72 39 4 0 18 -5 32
-11z m-714 -114 c0 -96 -3 -115 -15 -115 -12 0 -15 16 -15 85 l0 85 -24 -15
c-39 -26 -41 0 -4 39 54 56 58 50 58 -79z m1434 99 c18 -17 21 -56 6 -84 -7
-13 -6 -21 5 -30 24 -20 18 -66 -11 -89 -15 -12 -35 -21 -46 -21 -33 0 -78 29
-78 50 0 26 16 26 30 -1 9 -16 19 -19 48 -17 34 3 37 6 37 33 0 22 -6 33 -22
40 -28 12 -29 21 -4 34 25 14 33 38 21 62 -14 25 -56 25 -70 -1 -12 -23 -30
-27 -30 -6 0 25 30 46 65 46 18 0 41 -7 49 -16z"/>
<path d="M2824 2876 c-9 -24 0 -51 19 -54 23 -5 47 15 47 38 0 29 -56 42 -66
16z"/>
<path d="M2820 2779 c-18 -32 -4 -69 24 -69 39 0 56 11 56 35 0 49 -59 74 -80
34z"/>
<path d="M1421 2122 c-17 -27 -31 -52 -31 -55 0 -4 16 -7 35 -7 l35 0 0 55 c0
30 -2 55 -4 55 -2 0 -18 -22 -35 -48z"/>
<path d="M2824 2085 c-22 -34 -6 -75 29 -75 46 0 64 52 29 83 -26 23 -39 21
-58 -8z"/>
</g>
</svg>
